<?xml version="1.0" standalone="no"?>
<!DOCTYPE svg PUBLIC "-//W3C//DTD SVG 20010904//EN"
 "http://www.w3.org/TR/2001/REC-SVG-20010904/DTD/svg10.dtd">
<svg version="1.0" xmlns="http://www.w3.org/2000/svg"
 width="64pt" height="64pt" viewBox="0 0 310.000000 310.000000"
 preserveAspectRatio="xMidYMid meet">

<g transform="translate(0.000000,310.000000) scale(0.100000,-0.100000)"
fill="#000000" stroke="none">
<path d="M1411 2609 c-132 -22 -269 -126 -330 -249 -77 -158 -61 -335 44 -475
21 -28 55 -64 76 -80 37 -27 39 -32 39 -82 0 -46 3 -53 20 -53 18 0 20 7 20
67 l0 66 -54 57 c-130 136 -158 311 -74 471 35 68 73 106 151 153 148 88 342
62 467 -63 57 -57 83 -105 106 -195 14 -57 15 -78 5 -137 -15 -89 -56 -172
-116 -229 -57 -55 -68 -81 -60 -142 10 -74 45 -61 45 17 0 27 11 44 68 101 79
80 114 147 132 252 40 238 -124 470 -368 521 -60 13 -94 12 -171 0z"/>
<path d="M840 2465 c-16 -20 -4 -50 31 -80 38 -31 75 -41 94 -25 13 10 13 16
0 40 -25 47 -105 89 -125 65z"/>
<path d="M2088 2460 c-49 -26 -84 -75 -68 -95 18 -21 40 -19 80 9 47 31 68 70
50 91 -15 19 -17 19 -62 -5z"/>
<path d="M1428 2273 c-76 -168 -74 -183 28 -183 73 0 70 6 49 -99 -13 -60 -14
-76 -3 -82 7 -5 16 -9 19 -9 7 0 48 89 80 174 l22 60 -23 18 c-16 13 -39 18
-80 18 l-58 0 13 53 c21 83 23 121 4 125 -11 2 -26 -20 -51 -75z"/>
<path d="M793 2189 c-25 -7 -33 -15 -33 -33 0 -26 21 -36 80 -36 58 0 80 10
80 36 0 18 -8 25 -37 33 -44 12 -47 12 -90 0z"/>
<path d="M2135 2194 c-5 -1 -22 -5 -37 -8 -21 -5 -28 -12 -28 -30 0 -28 16
-36 73 -36 66 0 87 9 87 36 0 23 -5 26 -70 38 -8 1 -19 2 -25 0z"/>
<path d="M912 1953 c-40 -19 -84 -70 -80 -92 8 -42 98 -8 132 50 14 24 14 28
-2 42 -16 14 -20 14 -50 0z"/>
<path d="M2020 1950 c-10 -19 -6 -27 33 -66 30 -30 53 -44 71 -44 51 0 43 49
-17 93 -49 37 -74 42 -87 17z"/>
<path d="M1231 1562 c-6 -11 -11 -50 -11 -87 0 -78 26 -138 71 -163 18 -11 29
-25 29 -39 0 -13 13 -37 29 -55 l30 -33 103 2 c57 1 113 5 125 8 24 6 53 51
53 82 0 10 16 30 35 46 37 29 64 95 44 108 -7 4 -7 8 -2 10 16 6 22 107 8 119
-6 5 -121 13 -257 16 -242 7 -246 7 -257 -14z m481 -91 c6 -62 -27 -105 -94
-125 -13 -4 -18 -16 -18 -39 0 -19 -6 -39 -12 -44 -8 -6 -50 -8 -100 -5 l-87
4 -3 42 c-3 36 -7 43 -37 57 -46 22 -61 45 -61 95 l0 43 78 4 c42 1 134 4 203
5 l127 2 4 -39z"/>
<path d="M840 1001 c0 -5 9 -11 20 -14 15 -4 20 -14 20 -42 0 -34 -2 -37 -23
-31 -13 3 -40 1 -60 -5 -46 -12 -67 -50 -67 -119 0 -41 5 -56 25 -75 26 -27
63 -32 98 -14 16 9 22 9 25 0 5 -16 72 -14 72 3 0 7 -9 16 -20 19 -19 5 -20
14 -20 146 l0 141 -35 0 c-19 0 -35 -4 -35 -9z m18 -117 c20 -6 22 -12 22 -70
0 -54 -3 -65 -22 -78 -51 -36 -88 -9 -88 63 0 48 13 74 40 84 21 7 22 7 48 1z"/>
<path d="M2400 1001 c0 -5 9 -11 20 -14 19 -5 20 -14 20 -135 0 -121 -1 -130
-20 -135 -39 -10 -20 -27 29 -27 50 0 76 15 47 26 -12 5 -16 22 -16 75 0 76
14 93 68 87 26 -3 27 -5 30 -77 2 -59 0 -76 -13 -83 -29 -17 -15 -28 35 -28
49 0 64 11 35 27 -10 6 -15 31 -17 87 -3 73 -5 81 -30 99 -26 19 -29 20 -68 4
l-40 -15 0 59 0 59 -40 0 c-22 0 -40 -4 -40 -9z"/>
<path d="M1590 981 c-43 -6 -44 -7 -22 -19 21 -12 22 -19 22 -126 0 -105 -1
-114 -20 -119 -43 -11 -19 -27 40 -27 47 0 60 3 60 15 0 8 -9 15 -20 15 -18 0
-20 7 -20 55 l0 55 45 0 c57 0 59 18 3 22 l-43 3 -3 48 -3 47 46 0 c31 0 47
-5 51 -15 4 -8 13 -15 21 -15 10 0 13 9 11 33 l-3 32 -60 1 c-33 1 -80 -1
-105 -5z"/>
<path d="M570 970 c0 -5 9 -10 20 -10 19 0 20 -7 20 -119 0 -110 -1 -119 -20
-124 -43 -11 -19 -27 40 -27 59 0 83 16 40 27 -19 5 -20 14 -20 124 0 97 3
119 14 119 8 0 18 5 21 10 4 6 -17 10 -54 10 -34 0 -61 -4 -61 -10z"/>
<path d="M1040 902 c-94 -47 -67 -212 35 -212 20 0 49 7 66 15 36 19 30 39 -7
25 -56 -22 -92 -5 -108 48 -7 21 -6 22 68 22 74 0 76 1 76 25 0 40 -21 73 -53
85 -38 13 -36 13 -77 -8z m72 -29 c33 -29 22 -43 -32 -43 -56 0 -67 17 -28 44
28 20 37 20 60 -1z"/>
<path d="M1285 915 c-5 -2 -22 -6 -37 -9 -21 -5 -28 -12 -28 -31 0 -30 25 -34
33 -5 8 31 64 28 79 -4 17 -38 4 -56 -39 -56 -51 0 -83 -23 -83 -60 0 -55 54
-78 105 -44 23 15 25 15 31 0 7 -18 49 -22 59 -6 3 6 -1 13 -9 16 -12 5 -16
22 -16 73 0 104 -4 111 -70 126 -8 2 -19 2 -25 0z m55 -145 c0 -42 -81 -66
-88 -27 -6 28 17 47 54 47 27 0 34 -4 34 -20z"/>
<path d="M1895 904 c-19 -10 -31 -11 -33 -5 -4 13 -72 15 -72 2 0 -5 9 -11 20
-14 18 -5 20 -14 20 -85 0 -71 -2 -80 -20 -85 -43 -11 -19 -27 40 -27 59 0 83
16 40 27 -17 5 -20 14 -20 72 0 39 5 72 12 79 17 17 47 15 54 -3 10 -25 24
-17 24 14 0 17 -6 31 -16 35 -19 7 -14 9 -49 -10z"/>
<path d="M2064 913 c-12 -2 -32 -15 -45 -29 -20 -21 -24 -36 -24 -86 0 -53 3
-62 28 -84 35 -30 94 -32 128 -5 28 22 20 38 -9 22 -48 -26 -112 2 -112 49 0
18 7 20 70 20 l70 0 0 38 c0 56 -45 88 -106 75z m48 -35 c8 -7 18 -21 21 -30
6 -16 -1 -18 -48 -18 -59 0 -66 9 -35 40 23 23 40 25 62 8z"/>
<path d="M2254 906 c-63 -28 -49 -88 26 -115 37 -14 45 -21 45 -41 0 -22 -5
-25 -38 -28 -32 -3 -39 0 -44 18 -8 30 -28 19 -28 -16 0 -28 2 -29 51 -32 89
-5 137 61 78 107 -15 12 -32 21 -39 21 -7 0 -23 8 -36 19 -20 16 -21 21 -10
35 19 23 62 21 68 -4 8 -32 33 -24 33 10 0 22 -5 30 -17 30 -10 0 -27 2 -38 5
-11 3 -34 -1 -51 -9z"/>
<path d="M1457 727 c-8 -20 9 -41 27 -34 23 9 21 47 -3 47 -10 0 -21 -6 -24
-13z"/>
</g>
</svg>
